<?xml version="1.0" encoding="UTF-8" standalone="no"?>
<!-- Created with Inkscape (http://www.inkscape.org/) -->

<svg
   xmlns:dc="http://purl.org/dc/elements/1.1/"
   xmlns:cc="http://creativecommons.org/ns#"
   xmlns:rdf="http://www.w3.org/1999/02/22-rdf-syntax-ns#"
   xmlns:svg="http://www.w3.org/2000/svg"
   xmlns="http://www.w3.org/2000/svg"
   xmlns:sodipodi="http://sodipodi.sourceforge.net/DTD/sodipodi-0.dtd"
   xmlns:inkscape="http://www.inkscape.org/namespaces/inkscape"
   width="100"
   height="100"
   id="svg2"
   version="1.1"
   inkscape:version="0.48.2 r9819"
   sodipodi:docname="coffee-icon.svg"
   inkscape:export-filename="C:\Documents and Settings\Guokang\Desktop\bro\ifiredesign\google\images\coffee-icon.png"
   inkscape:export-xdpi="90"
   inkscape:export-ydpi="90">
  <defs
     id="defs4" />
  <sodipodi:namedview
     id="base"
     pagecolor="#ffffff"
     bordercolor="#666666"
     borderopacity="1.0"
     inkscape:pageopacity="0.0"
     inkscape:pageshadow="2"
     inkscape:zoom="2.9547104"
     inkscape:cx="62.283165"
     inkscape:cy="47.768799"
     inkscape:document-units="px"
     inkscape:current-layer="layer2"
     showgrid="false"
     showguides="true"
     inkscape:guide-bbox="true"
     inkscape:window-width="1024"
     inkscape:window-height="742"
     inkscape:window-x="-4"
     inkscape:window-y="-4"
     inkscape:window-maximized="1">
    <sodipodi:guide
       orientation="1,0"
       position="0,11.703178"
       id="guide2991" />
  </sodipodi:namedview>
  <metadata
     id="metadata7">
    <rdf:RDF>
      <cc:Work
         rdf:about="">
        <dc:format>image/svg+xml</dc:format>
        <dc:type
           rdf:resource="http://purl.org/dc/dcmitype/StillImage" />
        <dc:title></dc:title>
      </cc:Work>
    </rdf:RDF>
  </metadata>
  <g
     inkscape:label="saucer"
     inkscape:groupmode="layer"
     id="layer1"
     transform="translate(0,-952.36218)"
     style="display:inline">
    <path
       style="fill:#161e07;fill-opacity:1;stroke:none"
       d="m 5,1052.4495 c -2.542274,0 -4.61146373,-3.6594 -4.9375,-8.3951 l 99.875,0 c -0.326036,4.7357 -2.395226,8.3951 -4.9375,8.3951 l -90,0 z"
       id="rect2987"
       inkscape:connector-curvature="0" />
  </g>
  <g
     inkscape:groupmode="layer"
     id="layer2"
     inkscape:label="cup">
    <g
       id="g3051"
       transform="matrix(0.9375,0,0,0.9375,2.1995592,9.3717207)">
      <rect
         rx="10"
         y="11.908371"
         x="10.987137"
         height="74.039154"
         width="80"
         id="rect2985-1"
         style="fill:#161e07;fill-opacity:1;stroke:none" />
      <rect
         y="10.15416"
         x="10.987137"
         height="49.507607"
         width="80"
         id="rect2985"
         style="fill:#161e07;fill-opacity:1;stroke:none" />
    </g>
    <path
       style="fill:#161e07;fill-opacity:1;fill-rule:evenodd;stroke:none"
       clip-path="none"
       d="m 80.84375,31.765625 c -11.045695,0 -20,9.043106 -20,20.21875 0,11.175644 8.954305,20.25 20,20.25 11.045695,0 20,-9.074356 20,-20.25 0,-11.175644 -8.954305,-20.21875 -20,-20.21875 z m 0,5.0625 c 8.284271,0 15,6.774517 15,15.15625 0,8.381733 -6.715729,15.1875 -15,15.1875 -8.284271,0 -15,-6.805767 -15,-15.1875 0,-8.381733 6.715729,-15.15625 15,-15.15625 z"
       id="path3055"
       inkscape:connector-curvature="0" />
  </g>
</svg>
