<?xml version="1.0" encoding="UTF-8" standalone="no"?>
<!-- Created with Inkscape (http://www.inkscape.org/) -->

<svg
   xmlns:dc="http://purl.org/dc/elements/1.1/"
   xmlns:cc="http://creativecommons.org/ns#"
   xmlns:rdf="http://www.w3.org/1999/02/22-rdf-syntax-ns#"
   xmlns:svg="http://www.w3.org/2000/svg"
   xmlns="http://www.w3.org/2000/svg"
   xmlns:sodipodi="http://sodipodi.sourceforge.net/DTD/sodipodi-0.dtd"
   xmlns:inkscape="http://www.inkscape.org/namespaces/inkscape"
   width="100"
   height="100"
   id="svg2"
   version="1.1"
   inkscape:version="0.48.2 r9819"
   sodipodi:docname="images-logo.svg"
   inkscape:export-filename="C:\Documents and Settings\Guokang\Desktop\bro\ifiredesign\google\images\my-images-logo.png"
   inkscape:export-xdpi="90"
   inkscape:export-ydpi="90">
  <defs
     id="defs4" />
  <sodipodi:namedview
     id="base"
     pagecolor="#ffffff"
     bordercolor="#666666"
     borderopacity="1.0"
     inkscape:pageopacity="0.0"
     inkscape:pageshadow="2"
     inkscape:zoom="2.8960744"
     inkscape:cx="48.803893"
     inkscape:cy="51.836903"
     inkscape:document-units="px"
     inkscape:current-layer="layer3"
     showgrid="false"
     inkscape:window-width="1024"
     inkscape:window-height="742"
     inkscape:window-x="-4"
     inkscape:window-y="-4"
     inkscape:window-maximized="1" />
  <metadata
     id="metadata7">
    <rdf:RDF>
      <cc:Work
         rdf:about="">
        <dc:format>image/svg+xml</dc:format>
        <dc:type
           rdf:resource="http://purl.org/dc/dcmitype/StillImage" />
        <dc:title></dc:title>
      </cc:Work>
    </rdf:RDF>
  </metadata>
  <g
     inkscape:groupmode="layer"
     id="layer3"
     inkscape:label="sky">
    <rect
       style="fill:#5599ff;fill-opacity:1;stroke:none"
       id="rect3865"
       width="100"
       height="100"
       x="0"
       y="0" />
  </g>
  <g
     inkscape:label="sun"
     inkscape:groupmode="layer"
     id="layer1"
     transform="translate(0,-952.36218)">
    <path
       transform="matrix(1.372549,0,0,1.3655914,5.025406,959.76615)"
       sodipodi:type="arc"
       style="fill:#ff7f2a;fill-rule:evenodd;stroke:none"
       id="path3801-4"
       sodipodi:cx="0.70507759"
       sodipodi:cy="-2.412523"
       sodipodi:rx="17.979479"
       sodipodi:ry="16.393055"
       d="m 18.684556,-2.412523 a 17.979479,16.393055 0 1 1 -35.958957,0 17.979479,16.393055 0 1 1 35.958957,0 z" />
    <path
       transform="translate(5.288082,958.88415)"
       sodipodi:type="arc"
       style="fill:#ff0000;fill-rule:evenodd;stroke:none"
       id="path3801"
       sodipodi:cx="0.70507759"
       sodipodi:cy="-2.412523"
       sodipodi:rx="17.979479"
       sodipodi:ry="16.393055"
       d="m 18.684556,-2.412523 a 17.979479,16.393055 0 1 1 -35.958957,0 17.979479,16.393055 0 1 1 35.958957,0 z" />
  </g>
  <g
     inkscape:groupmode="layer"
     id="layer2"
     inkscape:label="slopes">
    <path
       sodipodi:type="arc"
       style="fill:#c8ab37;fill-rule:evenodd;stroke:none"
       id="path2995"
       sodipodi:cx="46.887661"
       sodipodi:cy="64.217308"
       sodipodi:rx="21.152328"
       sodipodi:ry="35.07761"
       d="m 68.039989,64.217308 a 21.152328,35.07761 0 1 1 -42.304657,0 21.152328,35.07761 0 1 1 42.304657,0 z"
       transform="matrix(1.7416667,0,0,2.1557789,-27.195431,-22.221532)" />
    <path
       transform="matrix(1,0,0,0.77889447,-37.016575,34.998608)"
       sodipodi:type="arc"
       style="fill:#c8ab37;fill-rule:evenodd;stroke:none"
       id="path2995-1"
       sodipodi:cx="46.887661"
       sodipodi:cy="64.217308"
       sodipodi:rx="21.152328"
       sodipodi:ry="35.07761"
       d="m 68.039989,64.217308 a 21.152328,35.07761 0 1 1 -42.304657,0 21.152328,35.07761 0 1 1 42.304657,0 z" />
    <path
       transform="matrix(1,0,0,0.91457287,45.477506,20.468798)"
       sodipodi:type="arc"
       style="fill:#c8ab37;fill-rule:evenodd;stroke:none"
       id="path2995-1-7"
       sodipodi:cx="46.887661"
       sodipodi:cy="64.217308"
       sodipodi:rx="21.152328"
       sodipodi:ry="35.07761"
       d="m 68.039989,64.217308 a 21.152328,35.07761 0 1 1 -42.304657,0 21.152328,35.07761 0 1 1 42.304657,0 z" />
  </g>
  <g
     inkscape:groupmode="layer"
     id="layer4"
     inkscape:label="clouds">
    <g
       id="g3942"
       transform="translate(-39.153406,3.5844667)">
      <path
         transform="matrix(0.6,0,0,1,29.708905,-2.8803954)"
         d="m 76.148382,19.092344 c 0,5.549002 -5.918887,10.047356 -13.220205,10.047356 -7.301318,0 -13.220205,-4.498354 -13.220205,-10.047356 0,-5.549001 5.918887,-10.0473554 13.220205,-10.0473554 7.301318,0 13.220205,4.4983544 13.220205,10.0473554 z"
         sodipodi:ry="10.047356"
         sodipodi:rx="13.220205"
         sodipodi:cy="19.092344"
         sodipodi:cx="62.928177"
         id="path3868"
         style="fill:#ffffff;fill-opacity:1;fill-rule:evenodd;stroke:none"
         sodipodi:type="arc" />
      <path
         d="m 76.148382,19.092344 c 0,5.549002 -5.918887,10.047356 -13.220205,10.047356 -7.301318,0 -13.220205,-4.498354 -13.220205,-10.047356 0,-5.549001 5.918887,-10.0473554 13.220205,-10.0473554 7.301318,0 13.220205,4.4983544 13.220205,10.0473554 z"
         sodipodi:ry="10.047356"
         sodipodi:rx="13.220205"
         sodipodi:cy="19.092344"
         sodipodi:cx="62.928177"
         id="path3868-0"
         style="fill:#ffffff;fill-opacity:1;fill-rule:evenodd;stroke:none"
         sodipodi:type="arc"
         transform="matrix(0.89333334,0,0,0.47368419,9.3110103,7.6970153)" />
      <path
         d="m 76.148382,19.092344 c 0,5.549002 -5.918887,10.047356 -13.220205,10.047356 -7.301318,0 -13.220205,-4.498354 -13.220205,-10.047356 0,-5.549001 5.918887,-10.0473554 13.220205,-10.0473554 7.301318,0 13.220205,4.4983544 13.220205,10.0473554 z"
         sodipodi:ry="10.047356"
         sodipodi:rx="13.220205"
         sodipodi:cy="19.092344"
         sodipodi:cx="62.928177"
         id="path3868-0-9"
         style="fill:#ffffff;fill-opacity:1;fill-rule:evenodd;stroke:none"
         sodipodi:type="arc"
         transform="matrix(0.72000001,0,0,0.77192981,33.086225,3.9417709)" />
      <path
         d="m 76.148382,19.092344 c 0,5.549002 -5.918887,10.047356 -13.220205,10.047356 -7.301318,0 -13.220205,-4.498354 -13.220205,-10.047356 0,-5.549001 5.918887,-10.0473554 13.220205,-10.0473554 7.301318,0 13.220205,4.4983544 13.220205,10.0473554 z"
         sodipodi:ry="10.047356"
         sodipodi:rx="13.220205"
         sodipodi:cy="19.092344"
         sodipodi:cx="62.928177"
         id="path3868-0-9-4"
         style="fill:#ffffff;fill-opacity:1;fill-rule:evenodd;stroke:none"
         sodipodi:type="arc"
         transform="matrix(0.54666668,0,0,0.77192981,41.173466,-2.2276584)" />
      <path
         d="m 76.148382,19.092344 c 0,5.549002 -5.918887,10.047356 -13.220205,10.047356 -7.301318,0 -13.220205,-4.498354 -13.220205,-10.047356 0,-5.549001 5.918887,-10.0473554 13.220205,-10.0473554 7.301318,0 13.220205,4.4983544 13.220205,10.0473554 z"
         sodipodi:ry="10.047356"
         sodipodi:rx="13.220205"
         sodipodi:cy="19.092344"
         sodipodi:cx="62.928177"
         id="path3868-0-9-4-8"
         style="fill:#ffffff;fill-opacity:1;fill-rule:evenodd;stroke:none"
         sodipodi:type="arc"
         transform="matrix(0.69333335,0,0,0.61403507,40.052393,1.3157311)" />
    </g>
  </g>
</svg>
